<?xml version="1.0" standalone="no"?>
<!DOCTYPE svg PUBLIC "-//W3C//DTD SVG 20010904//EN"
 "http://www.w3.org/TR/2001/REC-SVG-20010904/DTD/svg10.dtd">
<svg version="1.0" xmlns="http://www.w3.org/2000/svg"
 width="300.000000pt" height="300.000000pt" viewBox="0 0 300.000000 300.000000"
 preserveAspectRatio="xMidYMid meet">
<metadata>
Created by potrace 1.10, written by Peter Selinger 2001-2011
</metadata>
<g transform="translate(0.000000,300.000000) scale(0.100000,-0.100000)"
fill="#000000" stroke="none">
<path d="M1365 2756 c-203 -39 -377 -117 -494 -221 -91 -81 -202 -265 -236
-390 -7 -27 -20 -64 -29 -80 -22 -43 -27 -142 -10 -184 8 -18 14 -42 14 -53 0
-30 -46 -112 -117 -211 -69 -95 -102 -158 -103 -193 0 -27 22 -45 93 -79 51
-23 57 -30 57 -56 0 -17 -9 -51 -21 -76 -17 -38 -18 -48 -7 -58 19 -18 58 -29
58 -16 0 6 -6 11 -14 11 -21 0 -29 48 -12 80 11 22 12 39 4 74 -5 25 -13 45
-16 44 -18 -5 -99 44 -111 66 -12 22 -10 31 18 91 17 37 35 64 41 60 5 -3 10
0 10 8 0 8 15 34 34 58 54 71 96 153 96 188 0 18 -5 52 -11 76 -12 49 -5 104
29 218 24 77 102 247 114 247 4 0 8 6 8 13 0 7 11 24 25 39 14 15 25 32 25 38
0 5 4 10 8 10 5 0 15 11 22 25 8 14 20 23 27 21 7 -3 13 0 13 6 0 13 43 51 79
70 14 7 28 16 31 19 9 11 84 49 97 49 7 0 13 4 13 9 0 5 16 12 35 15 19 4 35
11 35 16 0 5 8 9 18 8 9 0 42 7 72 16 147 44 380 56 530 26 146 -28 166 -33
185 -43 11 -6 22 -12 25 -12 3 -1 18 -7 33 -13 16 -7 33 -12 38 -12 6 0 7 -5
3 -12 -4 -7 -3 -8 5 -4 6 4 17 3 24 -2 7 -5 29 -19 50 -31 21 -12 44 -26 50
-31 7 -6 29 -23 49 -38 80 -62 227 -259 211 -285 -4 -6 -1 -7 7 -2 10 6 12 1
8 -19 -3 -15 -3 -24 0 -21 10 10 42 -68 42 -102 0 -20 4 -32 10 -28 6 4 10 -6
10 -22 0 -16 5 -34 11 -40 8 -8 12 -63 13 -155 1 -125 -2 -154 -24 -228 -13
-47 -30 -90 -36 -97 -6 -6 -17 -25 -24 -42 -7 -17 -16 -31 -21 -31 -5 0 -9 -5
-9 -10 0 -6 -15 -32 -34 -59 -41 -58 -89 -156 -93 -191 -2 -14 -7 -32 -10 -40
-9 -21 -11 -55 -11 -210 0 -191 2 -229 10 -224 4 2 7 -8 6 -23 0 -16 7 -47 16
-70 10 -28 11 -43 4 -43 -7 0 -7 -4 -1 -12 12 -16 27 -68 24 -85 -1 -7 3 -13
9 -13 5 0 10 -14 10 -31 0 -17 5 -40 11 -51 20 -38 49 -152 43 -171 -4 -13
-14 -17 -31 -15 -29 3 -41 30 -93 218 -58 208 -80 334 -87 496 -6 159 -17 209
-21 101 -4 -105 -12 -76 -12 45 0 200 19 255 170 478 25 37 70 152 64 162 -3
5 -1 15 5 22 16 20 7 212 -13 276 -61 190 -94 251 -194 361 -60 65 -175 145
-193 133 -5 -3 -9 -2 -9 3 0 9 -31 24 -97 47 -24 8 -43 11 -43 6 0 -6 -7 -10
-16 -10 -8 0 -12 5 -9 10 4 6 -12 10 -39 11 -25 1 -58 3 -73 5 -63 8 -241 10
-278 4 -27 -5 -6 -7 65 -7 58 1 149 -4 204 -11 105 -14 268 -62 292 -86 13
-13 11 -19 -15 -45 -35 -35 -57 -32 -66 9 -11 48 -35 67 -88 67 -26 0 -50 -3
-53 -8 -3 -5 -10 -7 -15 -4 -5 4 -9 1 -9 -5 0 -6 -6 -8 -12 -4 -7 4 -10 4 -6
-1 4 -4 2 -15 -4 -23 -7 -8 -15 -37 -18 -63 l-5 -49 -53 26 -53 25 -39 -29
c-22 -16 -37 -32 -33 -35 3 -4 1 -7 -5 -7 -7 0 -12 -7 -12 -15 0 -8 -5 -15
-10 -15 -16 0 1 -53 23 -72 11 -10 17 -18 13 -18 -4 0 0 -8 9 -17 16 -16 16
-17 -1 -30 -10 -7 -33 -13 -53 -13 -19 0 -31 -3 -28 -7 4 -3 -2 -12 -13 -20
-11 -8 -20 -21 -20 -29 0 -13 -3 -13 -21 -1 -14 11 -30 12 -55 7 -43 -10 -51
3 -36 60 11 45 -1 71 -47 95 -28 14 -103 16 -94 2 6 -10 -23 -38 -31 -30 -3 4
-6 1 -6 -6 0 -18 -25 9 -34 36 -13 39 -37 52 -87 44 -68 -11 -85 -32 -88 -108
-1 -25 -12 -23 -68 10 l-33 19 39 56 c41 60 135 152 156 152 7 0 18 7 25 15
10 12 10 15 0 15 -15 0 -111 -69 -123 -87 -4 -7 -16 -13 -26 -13 -12 0 -21
-10 -25 -25 -4 -14 -11 -25 -16 -25 -24 0 -99 -144 -140 -270 -35 -106 -36
-134 -13 -200 16 -46 16 -48 -5 -93 -12 -26 -22 -51 -22 -57 0 -5 -4 -10 -8
-10 -4 0 -13 -15 -20 -34 -7 -18 -21 -41 -32 -51 -11 -10 -20 -22 -20 -27 0
-5 -12 -20 -26 -35 -14 -14 -30 -36 -35 -50 -5 -13 -14 -21 -19 -18 -12 7 15
60 43 86 9 9 17 21 17 28 0 6 4 11 8 11 5 0 13 10 19 23 6 12 25 51 42 86 20
42 31 78 30 105 l-1 41 -8 -42 c-12 -59 -43 -115 -119 -218 -37 -50 -73 -100
-80 -113 -16 -31 -7 -56 19 -49 12 3 20 -1 23 -12 4 -14 5 -14 6 2 0 9 5 17
11 17 5 0 9 -5 7 -11 -1 -7 21 -17 50 -24 56 -13 83 -29 83 -51 0 -8 5 -14 10
-14 31 0 -34 89 -66 90 -6 0 -23 9 -37 20 -28 22 -27 43 5 71 10 9 18 21 18
27 0 6 4 12 8 14 30 11 130 191 134 241 2 22 7 27 25 24 13 -2 23 -6 23 -10 0
-4 0 -12 0 -18 0 -5 -6 -7 -12 -3 -7 4 -10 4 -6 -1 4 -4 1 -17 -7 -29 -20 -28
-19 -58 4 -83 11 -12 17 -24 14 -27 -6 -6 12 -10 30 -7 4 0 7 -4 7 -9 0 -14
35 -12 74 4 33 14 34 14 41 -11 3 -14 4 -27 1 -30 -2 -3 7 -18 21 -34 22 -24
34 -29 73 -29 50 0 75 17 82 55 3 21 48 35 48 16 0 -6 13 -17 30 -26 16 -8 29
-19 28 -23 -7 -25 14 -73 37 -82 24 -9 35 -30 15 -30 -5 0 -6 -7 -3 -17 4 -10
2 -14 -4 -10 -16 10 -7 -71 11 -88 23 -24 30 1 9 35 l-18 31 32 24 c42 34 35
63 -18 71 -42 7 -48 20 -29 69 9 24 15 27 46 23 49 -6 63 21 34 63 -25 34 -21
54 14 70 20 10 30 8 56 -11 40 -29 60 -20 60 25 0 39 23 55 66 47 17 -3 24
-13 29 -42 8 -50 31 -55 71 -18 l31 29 29 -25 29 -25 -18 -33 c-27 -51 -15
-72 38 -64 38 5 43 3 49 -17 13 -48 7 -65 -24 -72 -17 -4 -35 -16 -41 -28 -12
-21 -4 -31 40 -56 14 -9 10 -42 -8 -71 -8 -12 -15 -12 -44 -2 -36 13 -67 8
-67 -12 0 -6 4 -26 9 -44 9 -31 8 -33 -26 -47 -33 -14 -37 -14 -49 2 -7 10
-16 26 -19 36 -4 10 -16 17 -30 17 -18 0 -26 -8 -35 -35 -12 -38 -21 -41 -68
-24 -28 10 -30 12 -21 42 13 45 11 55 -10 62 -21 6 -91 -23 -91 -38 0 -5 16
-6 36 -3 31 6 35 5 32 -12 -9 -57 62 -103 115 -73 15 8 27 19 27 23 0 15 30 8
51 -13 39 -39 129 1 116 51 -6 22 21 44 45 35 17 -6 52 24 72 63 15 29 15 33
1 38 -9 4 -14 13 -11 20 3 9 -1 11 -12 7 -9 -3 -14 -3 -10 2 4 4 3 14 -4 22
-6 8 -7 13 -2 12 21 -4 35 2 29 11 -3 6 0 10 9 10 8 0 17 13 21 31 6 24 2 39
-16 63 -12 17 -16 26 -8 20 17 -13 99 1 99 17 0 6 4 7 10 4 6 -3 7 1 4 9 -3 9
-1 16 5 16 6 0 8 6 5 13 -2 7 2 21 10 32 14 19 15 19 50 -17 38 -39 85 -71 71
-48 -5 9 -2 10 12 6 23 -7 80 28 97 59 6 11 16 23 21 27 6 5 5 8 -3 8 -7 0
-10 5 -7 10 4 6 2 16 -3 23 -5 7 -13 22 -17 35 -6 21 -4 22 34 20 23 -2 41 -6
41 -10 0 -4 14 -2 30 4 33 11 47 31 66 93 10 34 9 44 -4 68 -9 15 -19 27 -22
27 -3 0 -22 12 -41 26 -19 15 -26 24 -17 21 12 -4 15 -2 11 9 -3 9 1 14 15 14
11 0 25 7 32 15 16 20 30 4 53 -61 43 -121 43 -277 0 -394 -9 -25 -45 -90 -79
-145 -106 -170 -134 -266 -134 -457 0 -94 5 -145 25 -278 9 -60 27 -147 35
-165 5 -11 12 -38 15 -60 4 -22 18 -75 32 -118 13 -43 22 -81 19 -84 -2 -3
-208 -7 -458 -9 -428 -4 -518 1 -518 24 0 43 -27 207 -46 280 -45 173 -68 194
-218 199 -219 7 -276 17 -276 50 0 7 -7 13 -15 13 -22 0 -18 -14 11 -43 32
-32 51 -35 229 -40 158 -4 204 -18 206 -67 4 -66 9 -92 28 -161 22 -79 51
-267 51 -331 0 -38 0 -38 -39 -38 -22 0 -43 4 -46 10 -3 5 -25 10 -48 11 -23
0 -51 4 -62 8 -15 6 -11 9 22 14 23 4 49 4 57 1 12 -5 16 0 16 20 0 14 -3 26
-7 26 -11 0 -232 -21 -268 -25 -16 -2 -36 -4 -43 -4 -7 -1 -10 -6 -7 -11 4 -6
11 -8 16 -5 5 4 9 1 9 -4 0 -8 6 -7 19 0 11 7 26 9 37 4 11 -4 27 -7 37 -6 10
1 24 -2 31 -9 8 -6 31 -11 52 -12 22 -1 42 -6 45 -11 8 -12 86 -26 146 -26 46
-1 49 3 55 74 l3 30 502 3 502 2 16 -29 c16 -33 22 -67 6 -42 -7 11 -9 11 -14
0 -4 -12 -7 -11 -16 1 -9 13 -12 13 -20 1 -10 -15 -35 -6 -26 10 3 5 -1 6 -9
3 -23 -9 -8 -31 27 -38 18 -4 72 -9 121 -13 85 -6 89 -5 82 13 -32 78 -122
414 -141 526 -20 113 -20 357 1 444 18 81 35 114 124 251 79 120 105 191 121
328 12 97 7 173 -17 275 -89 376 -329 618 -696 701 -119 27 -397 35 -503 15z
m554 -325 c14 -46 21 -56 45 -62 24 -7 32 -4 50 19 12 15 30 37 41 50 l20 23
48 -30 c26 -17 47 -35 47 -40 0 -5 -9 -30 -20 -56 -19 -44 -19 -47 -2 -71 14
-19 22 -22 47 -17 17 4 45 7 64 8 32 0 35 -3 52 -53 l18 -53 -54 -26 c-49 -24
-55 -31 -55 -58 0 -27 6 -34 55 -58 l55 -27 -21 -57 c-12 -32 -23 -60 -25 -61
-1 -2 -28 2 -59 8 -53 11 -59 10 -77 -8 -20 -19 -20 -20 1 -67 12 -26 21 -53
21 -59 0 -12 -106 -74 -113 -66 -2 3 -19 25 -38 51 -28 38 -38 44 -59 39 -19
-5 -28 -17 -41 -60 l-17 -55 -43 2 c-85 4 -85 5 -81 75 3 60 2 63 -24 75 -24
11 -32 9 -73 -18 -51 -35 -58 -34 -105 24 l-30 37 43 44 c35 36 41 47 36 69
-6 22 -14 27 -53 32 -26 4 -54 7 -62 8 -11 2 -16 19 -18 69 l-3 66 61 7 c53 6
63 10 71 33 9 22 5 30 -32 68 -47 47 -47 45 14 118 l24 30 53 -33 c47 -29 56
-31 77 -20 20 11 23 20 23 75 0 58 2 64 23 68 12 3 31 7 42 10 47 10 57 2 74
-53z m321 -133 c0 -4 -13 -8 -30 -8 -30 0 -37 11 -24 45 6 14 9 13 30 -6 13
-12 24 -26 24 -31z m-1122 -70 c13 -41 19 -48 41 -48 19 0 34 11 54 40 l29 40
48 -27 49 -27 -16 -36 c-23 -53 -24 -63 -9 -83 13 -17 18 -17 64 -4 l50 15 20
-55 20 -55 -49 -21 c-40 -18 -49 -27 -49 -47 0 -21 8 -29 38 -40 20 -8 40 -16
45 -18 4 -2 7 1 7 7 0 6 -7 11 -16 11 -8 0 -12 5 -9 10 4 6 3 10 -2 9 -27 -5
-32 1 -21 26 6 14 13 23 15 21 2 -2 16 7 30 20 14 13 31 20 37 17 6 -4 18 -9
27 -10 40 -6 69 -24 69 -42 0 -11 -3 -21 -7 -23 -17 -7 -54 -69 -51 -85 2 -10
-2 -18 -9 -18 -20 0 -65 -46 -59 -61 4 -9 -2 -14 -17 -14 -13 0 -17 3 -11 8 6
4 14 17 18 30 4 12 11 22 16 22 4 0 8 16 7 35 -1 42 -6 38 -27 -23 -18 -50
-22 -52 -91 -39 -30 6 -37 4 -48 -16 -10 -18 -9 -29 4 -59 21 -53 20 -56 -30
-80 -45 -22 -45 -22 -59 -3 -56 80 -84 81 -108 7 -13 -43 -17 -47 -44 -44 -72
6 -74 8 -74 65 0 74 -21 86 -81 46 l-44 -30 -38 42 -38 42 37 38 c34 35 36 41
26 64 -8 18 -19 25 -39 25 -66 0 -74 8 -71 64 2 36 7 51 18 53 74 9 88 15 94
36 4 15 -4 33 -24 59 -17 20 -30 40 -30 45 0 4 13 24 29 43 l29 34 42 -28 c36
-24 46 -26 67 -17 22 10 24 17 22 63 -3 48 -1 53 21 59 14 4 38 7 54 6 25 -2
31 -8 44 -49z m-303 -187 c2 -11 0 -21 -6 -21 -5 0 -12 0 -16 0 -11 0 -11 23
0 38 12 15 16 12 22 -17z"/>
<path d="M1852 2170 c-134 -61 -51 -270 91 -229 63 18 87 53 87 124 0 40 -5
52 -34 81 -19 19 -43 34 -54 34 -11 0 -26 2 -34 5 -7 2 -32 -4 -56 -15z m93
-26 c22 -10 38 -28 48 -51 14 -36 12 -83 -4 -83 -5 0 -9 -6 -9 -13 0 -19 -56
-39 -89 -32 -38 8 -72 41 -64 62 4 11 3 14 -5 9 -8 -5 -12 2 -12 21 0 46 11
71 33 79 12 4 31 10 42 14 11 5 22 8 23 9 2 1 19 -6 37 -15z"/>
<path d="M1071 2017 c-85 -43 -85 -162 0 -197 26 -11 38 -11 73 1 85 29 101
136 27 186 -38 26 -65 29 -100 10z m98 -46 c12 -13 21 -37 21 -53 0 -27 -29
-67 -50 -69 -5 -1 -16 -2 -22 -3 -7 -1 -19 3 -27 8 -12 9 -13 8 -7 -2 7 -11 4
-12 -11 -3 -41 21 -46 131 -6 131 7 0 13 4 13 8 0 19 69 6 89 -17z"/>
<path d="M1385 2666 c-139 -23 -295 -83 -399 -155 -109 -76 -211 -230 -271
-410 -37 -111 -45 -174 -28 -206 9 -15 10 -9 6 26 -10 88 93 348 180 453 60
73 134 139 153 135 4 0 10 4 14 11 4 6 15 12 24 14 10 1 21 8 25 15 5 7 11 12
15 11 3 0 21 6 39 13 84 38 224 76 282 77 11 1 52 3 90 6 73 6 307 -12 334
-26 9 -5 40 -13 69 -19 61 -13 166 -60 204 -93 14 -13 38 -32 53 -42 49 -36
65 -53 57 -61 -4 -5 -2 -5 4 -2 17 10 121 -113 107 -127 -3 -3 -2 -6 4 -6 6 0
23 -28 38 -62 14 -35 33 -77 41 -95 8 -17 14 -40 14 -52 0 -12 5 -21 11 -21 5
0 8 -3 5 -8 -2 -4 2 -34 10 -67 7 -33 14 -75 14 -94 0 -19 3 -31 7 -27 10 10
4 91 -13 162 -20 86 -71 217 -111 287 -33 55 -139 171 -193 210 -88 64 -215
117 -342 142 -105 22 -345 27 -443 11z"/>
<path d="M1335 2573 c-11 -3 -24 -9 -29 -14 -6 -5 -22 -9 -37 -9 -15 0 -30 -4
-34 -9 -3 -5 -19 -12 -35 -16 -45 -10 -104 -41 -92 -49 6 -3 13 -2 17 4 3 5
15 10 26 10 10 0 19 4 19 8 0 8 37 19 220 70 l35 10 -35 0 c-19 0 -44 -2 -55
-5z"/>
<path d="M1493 1568 c-31 -34 -36 -63 -18 -97 15 -31 51 -47 90 -42 30 3 65
48 65 82 0 68 -92 106 -137 57z m105 -64 c-1 -18 -5 -31 -10 -28 -4 3 -8 1 -8
-4 0 -21 -42 -20 -67 2 -23 20 -25 26 -16 52 7 21 18 31 39 35 40 7 64 -14 62
-57z"/>
<path d="M685 1320 c-3 -5 -11 -7 -18 -4 -8 3 -23 -18 -40 -51 -39 -80 -36
-102 10 -70 16 11 28 13 48 5 38 -14 39 -13 16 16 -13 17 -18 31 -13 38 5 6
14 26 20 44 9 26 8 32 -3 32 -8 0 -16 -4 -20 -10z"/>
<path d="M690 1155 c-40 -26 -76 -80 -60 -90 6 -3 22 3 36 14 24 19 28 19 50
5 20 -13 22 -19 13 -36 -6 -11 -19 -22 -29 -25 -34 -9 -41 -157 -10 -194 l20
-24 -5 34 c-4 25 -1 37 15 51 30 26 36 163 8 201 -16 21 -17 30 -8 53 6 16 9
30 8 31 -2 2 -19 -8 -38 -20z"/>
<path d="M542 1078 c-17 -17 -16 -21 23 -61 19 -20 35 -34 35 -32 0 13 -25 55
-32 55 -5 0 -6 11 -2 25 7 27 -4 33 -24 13z"/>
<path d="M586 900 c-5 -59 -3 -77 13 -108 27 -52 57 -81 110 -106 41 -18 64
-21 208 -21 155 0 162 -1 186 -23 28 -26 51 -108 66 -231 12 -93 31 -118 29
-38 -1 31 -4 57 -8 57 -3 0 -7 19 -9 43 -6 115 -58 200 -130 212 -20 3 -92 5
-161 3 -138 -2 -194 6 -186 27 3 9 0 12 -9 9 -17 -7 -33 8 -69 64 -23 36 -26
53 -25 108 3 88 -7 91 -15 4z"/>
</g>
</svg>
