<?xml version="1.0" standalone="no"?>
<!DOCTYPE svg PUBLIC "-//W3C//DTD SVG 20010904//EN"
 "http://www.w3.org/TR/2001/REC-SVG-20010904/DTD/svg10.dtd">
<svg version="1.0" xmlns="http://www.w3.org/2000/svg"
 width="40.000000pt" height="40.000000pt" viewBox="0 0 256.000000 256.000000"
 preserveAspectRatio="xMidYMid meet">
<metadata>
Created by potrace 1.10, written by Peter Selinger 2001-2011
</metadata>
<g transform="translate(0.000000,256.000000) scale(0.100000,-0.100000)"
fill="#000000" stroke="none">
<path d="M1030 2534 c-262 -56 -464 -166 -651 -353 -115 -114 -195 -227 -259
-364 -65 -138 -116 -342 -108 -434 2 -30 8 -16 26 72 12 61 25 121 28 135 7
38 52 157 84 225 54 116 149 247 254 350 116 115 286 235 333 235 7 0 13 5 13
10 0 6 7 10 15 10 8 0 23 4 33 10 39 21 132 54 187 65 53 12 109 24 175 38
l65 15 -65 0 c-36 0 -94 -6 -130 -14z"/>
<path d="M1400 2534 c36 -8 79 -17 95 -20 164 -30 344 -105 495 -207 95 -64
261 -231 321 -322 117 -178 160 -288 214 -540 20 -98 23 -105 24 -60 3 167
-79 410 -205 602 -69 107 -239 280 -344 350 -187 125 -393 199 -580 208 l-85
4 65 -15z"/>
<path d="M1097 1996 c-32 -7 -60 -13 -62 -15 -3 -1 -13 -4 -22 -7 -265 -88
-442 -395 -393 -684 25 -146 107 -324 215 -466 30 -39 33 -49 37 -139 4 -72
10 -101 22 -113 14 -15 47 -17 239 -20 254 -3 268 0 278 61 10 61 25 66 189
67 220 0 236 16 241 235 3 136 9 158 50 179 12 6 31 23 41 37 19 25 19 27 2
70 -10 24 -20 46 -24 49 -20 16 -60 127 -70 196 -42 270 -174 455 -375 522
-33 11 -73 23 -90 27 -56 13 -220 13 -278 1z m277 -31 c243 -52 396 -234 439
-527 12 -79 22 -110 63 -186 56 -105 55 -114 -15 -141 l-43 -17 -1 -156 c-2
-142 -4 -159 -23 -185 -32 -43 -73 -52 -235 -52 -99 -1 -149 -5 -157 -13 -7
-7 -12 -34 -12 -60 l0 -48 -245 0 -245 0 0 103 0 102 -61 84 c-72 101 -152
261 -176 351 -25 91 -24 266 1 340 48 141 131 255 234 323 63 42 156 81 212
90 60 10 201 5 264 -8z"/>
<path d="M1191 1774 c-29 -37 -26 -71 9 -104 23 -21 30 -37 30 -64 0 -31 -3
-36 -23 -36 -12 0 -40 -9 -61 -21 l-38 -20 -23 21 c-18 17 -22 29 -18 58 6 46
-18 79 -64 88 -62 12 -106 -68 -68 -123 18 -25 59 -37 83 -24 13 7 23 4 43
-15 l26 -25 -24 -46 c-12 -26 -23 -55 -23 -65 0 -14 -8 -18 -33 -18 -25 0 -39
7 -55 30 -31 41 -90 43 -121 4 -24 -30 -26 -43 -10 -78 17 -35 61 -52 99 -36
16 7 32 21 35 31 5 14 16 19 45 19 35 0 38 -3 44 -32 4 -18 15 -44 26 -58 19
-25 19 -25 -6 -51 -22 -23 -32 -26 -64 -22 -29 4 -42 1 -59 -16 -46 -46 -11
-131 53 -131 41 0 80 43 73 83 -4 24 1 39 18 59 l23 26 48 -24 c26 -13 53 -24
61 -24 9 0 13 -13 13 -40 0 -28 -4 -40 -14 -40 -8 0 -22 -10 -30 -22 -37 -52
-4 -118 59 -118 74 0 104 88 45 132 -23 16 -30 30 -30 55 0 21 5 33 13 33 8 0
36 11 62 25 l49 24 23 -21 c19 -17 22 -28 17 -59 -15 -91 112 -124 145 -38 21
56 -32 111 -91 95 -16 -4 -31 2 -50 21 l-27 26 19 24 c11 14 22 40 26 59 6 31
10 34 39 34 24 0 42 -9 65 -31 26 -26 36 -30 63 -25 59 11 84 67 51 114 -34
49 -103 48 -126 -3 -9 -20 -18 -25 -48 -25 -35 0 -38 2 -43 35 -3 19 -15 48
-25 63 l-20 27 28 26 c22 19 33 23 50 17 30 -11 71 10 88 45 16 34 0 74 -39
96 -53 29 -120 -28 -104 -90 8 -34 -37 -78 -59 -60 -9 7 -35 19 -58 26 -38 11
-43 16 -46 44 -3 25 3 37 27 57 23 19 31 34 31 58 0 69 -87 103 -129 50z m80
-14 c35 -19 18 -80 -22 -80 -21 0 -49 26 -49 45 0 16 27 45 41 45 6 0 19 -5
30 -10z m-237 -122 c14 -23 -3 -52 -33 -56 -42 -6 -67 38 -39 66 17 17 58 11
72 -10z m502 -3 c4 -15 1 -32 -6 -40 -18 -21 -57 -19 -70 5 -16 30 4 60 40 60
23 0 31 -5 36 -25z m-188 -124 c103 -73 91 -239 -21 -298 -18 -9 -55 -17 -83
-17 -176 -1 -237 233 -84 324 48 28 142 24 188 -9z m-430 -113 c34 -34 -6 -90
-48 -68 -35 19 -20 80 20 80 9 0 21 -5 28 -12z m722 -7 c18 -35 -18 -79 -54
-65 -22 8 -31 51 -16 69 18 21 57 19 70 -4z m-608 -256 c10 -22 9 -29 -9 -46
-26 -26 -60 -18 -69 17 -13 52 56 77 78 29z m496 13 c39 -39 -17 -100 -58 -63
-24 22 -25 38 -4 59 18 19 45 21 62 4z m-256 -105 c21 -19 23 -44 6 -61 -39
-39 -100 17 -63 58 22 24 33 25 57 3z"/>
<path d="M1210 1466 c-80 -26 -92 -135 -20 -184 46 -31 94 -25 133 18 73 81
-8 200 -113 166z m89 -52 c46 -59 7 -123 -69 -115 -21 3 -60 48 -60 70 0 34
39 71 75 71 24 0 39 -7 54 -26z"/>
<path d="M2537 1175 c-16 -97 -68 -294 -92 -352 -76 -176 -159 -299 -284 -424
-194 -193 -421 -309 -716 -365 -86 -16 -94 -19 -57 -22 93 -7 324 53 454 119
257 129 477 354 598 612 66 140 115 340 108 439 l-3 43 -8 -50z"/>
<path d="M10 1169 c0 -109 48 -294 110 -426 125 -268 355 -498 623 -623 138
-65 342 -116 434 -108 31 2 20 6 -57 21 -104 20 -218 51 -265 71 -16 7 -46 19
-65 27 -237 93 -483 320 -616 569 -65 121 -104 236 -135 395 -12 61 -23 112
-25 114 -2 2 -4 -16 -4 -40z"/>
</g>
</svg>
