<?xml version="1.0" standalone="no"?>
<!DOCTYPE svg PUBLIC "-//W3C//DTD SVG 20010904//EN"
 "http://www.w3.org/TR/2001/REC-SVG-20010904/DTD/svg10.dtd">
<svg version="1.0" xmlns="http://www.w3.org/2000/svg"
 width="270.000000pt" height="270.000000pt" viewBox="0 0 270.000000 270.000000"
 preserveAspectRatio="xMidYMid meet">
<metadata>
Created by potrace 1.10, written by Peter Selinger 2001-2011
</metadata>
<g transform="translate(0.000000,270.000000) scale(0.100000,-0.100000)"
fill="#000000" stroke="none">
<path d="M1235 2217 c-59 -23 -184 -101 -178 -110 3 -6 1 -7 -5 -3 -11 6 -310
-170 -350 -207 -50 -46 -52 -59 -52 -327 0 -208 3 -256 16 -281 9 -18 22 -29
31 -27 13 3 15 36 14 260 -2 201 1 264 12 290 12 29 49 55 262 183 137 81 269
154 293 162 55 16 133 17 187 2 54 -15 452 -253 491 -294 42 -43 48 -95 43
-379 -4 -191 -2 -221 11 -221 8 0 23 16 32 35 16 30 18 66 18 275 -1 271 -5
295 -66 350 -50 45 -447 282 -493 295 -49 13 -229 11 -266 -3z"/>
<path d="M1405 2090 c-16 -4 -138 -70 -270 -147 -296 -172 -291 -164 -148
-251 54 -32 141 -85 193 -117 80 -50 101 -59 143 -59 40 -1 52 3 68 22 23 29
13 53 -31 74 l-31 15 46 27 46 28 40 -26 c44 -29 71 -33 89 -11 16 20 6 43
-25 57 -14 6 -25 14 -25 17 0 3 19 18 42 33 l42 27 36 -21 c74 -46 70 -45 90
-20 23 28 17 47 -21 62 -16 7 -29 15 -29 19 0 3 19 16 42 29 l41 22 56 -33
c37 -22 56 -40 56 -52 0 -14 -36 -41 -130 -99 -311 -189 -354 -218 -360 -236
-5 -15 -15 -20 -45 -20 -21 0 -42 5 -45 10 -3 6 -9 10 -13 10 -4 0 -7 -117 -7
-260 0 -190 3 -262 12 -271 7 -7 37 -14 68 -17 44 -4 60 -1 75 13 19 17 20 32
20 265 0 209 2 249 15 253 8 4 17 2 20 -3 3 -5 5 -111 4 -236 -1 -161 2 -229
11 -237 17 -17 41 20 35 52 -3 14 -3 100 1 189 l7 164 40 29 c68 49 67 51 67
-155 0 -102 4 -187 9 -191 5 -3 17 2 25 11 14 13 16 47 16 219 0 134 4 206 11
210 6 4 12 5 15 2 3 -2 5 -87 6 -188 2 -184 8 -220 34 -198 11 9 14 55 14 214
0 157 3 205 13 214 8 6 17 8 20 4 4 -3 7 -91 7 -195 l0 -189 23 3 22 3 5 268
c5 277 8 295 47 280 9 -3 11 0 7 10 -3 9 -14 14 -25 12 -11 -2 -17 0 -14 6 4
5 11 7 16 4 12 -8 12 8 -1 21 -6 6 -1 10 15 12 14 1 25 -3 25 -9 0 -6 -7 -9
-14 -6 -10 4 -13 1 -9 -8 3 -8 8 -13 12 -10 4 2 7 -6 6 -17 -1 -12 -7 -24 -13
-26 -9 -3 -12 -69 -12 -243 0 -205 2 -240 15 -245 8 -4 22 -1 30 6 13 11 15
58 15 300 0 273 -1 289 -20 313 -23 30 -372 241 -432 263 -44 15 -49 16 -93 4z
m107 -54 c20 -10 41 -15 47 -12 7 4 8 1 5 -8 -6 -15 5 -20 33 -17 6 1 14 -3
18 -9 3 -6 0 -7 -10 -4 -9 4 -15 2 -13 -4 2 -5 -1 -11 -7 -12 -5 0 -13 -10
-17 -21 -7 -17 -11 -18 -30 -8 -22 12 -22 11 -8 -6 9 -11 10 -16 3 -11 -8 4
-13 2 -13 -5 0 -7 -3 -9 -7 -6 -3 4 -17 0 -30 -8 -35 -24 -73 -36 -73 -25 0 6
9 10 20 10 11 0 20 5 20 10 0 6 8 10 18 10 13 0 14 2 4 9 -11 7 -10 9 3 15 9
3 13 11 9 17 -4 7 -3 9 2 6 6 -3 16 -2 24 4 13 7 13 9 0 10 -8 1 -18 1 -23 0
-4 -1 -21 14 -38 31 -17 18 -28 26 -24 18 4 -10 2 -9 -8 2 -9 12 -17 14 -24 7
-7 -7 -12 -6 -16 5 -3 8 -1 18 5 22 7 4 8 3 4 -4 -4 -7 -3 -12 3 -12 5 0 13 5
16 10 5 8 12 7 23 -2 10 -8 13 -9 9 -1 -7 12 23 24 33 13 3 -3 21 -13 42 -24z
m-207 -59 c-11 -6 -14 -12 -7 -16 7 -4 4 -11 -8 -18 -23 -15 -44 4 -30 27 8
12 10 13 10 1 0 -20 40 17 41 38 1 12 3 11 6 -3 3 -12 -2 -23 -12 -29z m129
-3 l38 -26 -42 -19 c-42 -19 -43 -19 -76 2 -19 11 -34 22 -34 24 0 4 63 45 70
45 3 0 23 -12 44 -26z m242 -47 c-12 -12 -122 -82 -243 -155 l-221 -132 -41
23 c-22 12 -41 24 -41 27 0 3 22 19 48 35 64 41 68 73 14 113 l-40 28 45 27
44 27 32 -22 c18 -12 34 -23 37 -26 3 -2 -3 -8 -13 -13 -26 -15 -22 -58 8 -69
32 -12 37 -10 185 78 102 60 128 72 142 63 23 -14 31 -14 22 1 -4 6 -3 8 4 4
6 -3 13 -2 17 4 3 5 10 10 15 10 5 0 -1 -10 -14 -23z m-325 -31 c5 3 12 -2 15
-10 3 -9 10 -13 15 -10 5 3 15 -1 23 -9 12 -11 11 -15 -5 -25 -10 -6 -26 -9
-35 -5 -10 4 -15 2 -11 -3 3 -5 -2 -10 -12 -10 -10 0 -18 6 -18 12 0 7 6 10
14 7 7 -3 13 -1 14 3 0 5 2 17 4 27 2 9 -1 15 -6 11 -5 -3 -6 -11 -3 -17 4 -7
4 -9 0 -5 -4 3 -8 10 -9 15 -2 13 -21 31 -29 26 -4 -2 -5 4 -1 13 5 13 3 15
-7 9 -9 -6 -11 -4 -5 5 6 10 13 6 27 -14 11 -14 24 -24 29 -20z m-189 17 c-6
-2 -10 -9 -7 -14 4 -5 -2 -6 -11 -2 -11 4 -15 3 -10 -5 3 -6 2 -14 -4 -17 -8
-5 -8 -11 0 -20 17 -20 -2 -25 -30 -8 l-25 14 25 -5 c21 -4 22 -3 8 7 -15 10
-13 13 15 34 17 13 36 23 41 22 6 0 5 -3 -2 -6z m485 -78 c6 -16 -26 -60 -36
-50 -3 4 1 10 9 15 13 8 13 10 0 10 -9 0 -21 -5 -28 -10 -6 -6 -10 -7 -7 -4 3
4 0 13 -5 19 -8 9 -6 15 6 19 9 4 19 4 22 1 3 -3 0 -5 -6 -5 -7 0 -12 -5 -12
-10 0 -7 6 -7 19 0 14 7 21 6 24 -3 3 -7 6 -6 6 5 1 9 -5 19 -11 21 -10 4 -10
6 0 6 7 1 15 -6 19 -14z m-546 -22 c16 -10 29 -20 29 -24 0 -4 -17 -17 -37
-29 -35 -21 -39 -21 -65 -5 -15 9 -32 13 -38 10 -5 -3 -8 0 -5 7 4 10 63 51
83 57 2 1 17 -7 33 -16z m-138 -20 c-9 -3 -8 -11 5 -31 16 -26 16 -26 -1 -13
-9 7 -17 10 -17 5 0 -5 -4 -2 -10 6 -10 16 5 41 24 39 7 0 7 -2 -1 -6z m213
-27 c-16 -14 -36 -22 -44 -18 -11 4 -13 2 -7 -8 5 -9 4 -11 -4 -6 -16 10 -3
27 17 24 10 -2 16 3 14 10 -1 8 1 11 6 8 4 -2 14 -1 22 5 28 17 25 8 -4 -15z
m307 -16 c-13 -5 -23 -14 -23 -20 0 -6 6 -8 13 -4 6 4 9 3 4 -1 -4 -5 0 -16 9
-26 15 -16 14 -17 -10 -15 -14 2 -32 9 -40 15 -8 7 -19 10 -24 7 -5 -3 -9 1
-9 8 0 8 7 12 15 8 11 -4 13 -1 7 9 -4 8 -5 11 0 7 4 -4 17 -1 29 7 11 8 27
15 36 14 9 0 6 -4 -7 -9z m-373 -55 c0 -29 -12 -32 -31 -9 -10 13 -10 17 2 25
23 14 29 11 29 -16z m704 -54 c-3 -20 -7 -44 -9 -54 -2 -9 0 -15 5 -12 4 3 10
-1 13 -8 3 -8 -8 -13 -32 -14 -21 -2 -43 -11 -53 -23 -9 -11 -23 -18 -30 -15
-17 7 -74 -54 -69 -74 2 -13 0 -13 -13 -2 -13 11 -20 11 -41 -3 -21 -14 -24
-14 -19 -1 4 8 1 15 -5 15 -6 0 -11 -9 -11 -21 0 -11 -4 -18 -9 -14 -5 3 -17
-2 -25 -11 -15 -14 -16 -14 -16 5 0 12 -5 21 -11 21 -6 0 -8 7 -5 16 4 11 2
15 -8 11 -10 -4 -13 -1 -9 9 3 7 10 14 15 14 6 0 7 7 4 16 -6 15 -4 15 11 3
15 -12 16 -12 10 4 -4 11 -3 16 3 12 13 -8 52 19 43 29 -4 4 1 4 12 0 14 -6
17 -4 12 9 -4 11 -2 14 7 11 8 -3 24 7 36 23 13 15 20 21 17 11 -4 -11 -1 -15
11 -13 10 1 16 9 14 20 -2 9 1 15 6 12 9 -7 73 29 84 47 3 6 20 11 36 12 29 1
30 0 26 -35z m-498 12 c-15 -4 -16 -7 -5 -15 10 -7 8 -8 -9 -5 -19 5 -21 3
-11 -9 6 -7 15 -12 19 -9 4 3 13 -1 19 -9 9 -11 9 -15 -1 -19 -7 -3 -2 -6 12
-6 20 -1 22 -3 10 -11 -13 -9 -13 -10 0 -11 10 0 8 -3 -5 -9 -27 -12 -43 -12
-25 0 11 7 7 10 -18 10 -23 0 -31 -4 -26 -12 4 -7 3 -8 -5 -4 -6 4 -9 12 -6
17 4 5 0 9 -7 9 -8 0 -22 10 -32 21 -18 22 -18 22 10 15 28 -7 28 -7 9 8 -25
19 -6 21 21 2 18 -14 18 -15 -6 -25 -15 -6 -19 -10 -9 -10 25 -1 41 23 26 38
-9 10 -8 15 7 27 11 8 27 13 35 13 11 -1 10 -3 -3 -6z m96 -210 c-6 -2 -10 -9
-6 -14 3 -5 0 -9 -6 -9 -14 0 -10 -392 4 -402 7 -5 7 -11 -2 -20 -14 -14 -16
-42 -2 -33 6 3 10 -1 10 -9 0 -8 -5 -18 -12 -22 -7 -4 -8 -3 -4 4 5 8 2 10 -8
6 -9 -3 -13 -11 -9 -18 4 -6 -2 -4 -12 4 -11 9 -16 10 -11 3 10 -17 -24 -16
-46 1 -16 12 -18 35 -18 222 0 115 4 214 8 221 4 6 23 14 43 18 25 5 40 14 48
31 6 13 16 24 23 23 10 0 10 -2 0 -6z"/>
<path d="M757 1773 c-4 -3 -7 -129 -7 -278 0 -229 2 -275 15 -285 8 -7 22 -10
30 -6 23 8 22 537 -1 560 -17 17 -27 20 -37 9z"/>
<path d="M840 1640 c0 -63 8 -77 60 -111 25 -16 25 -17 30 -220 5 -196 6 -204
25 -204 19 0 20 8 23 188 3 196 2 195 45 188 4 0 7 4 7 9 0 10 -18 14 -57 11
-11 -1 -24 3 -29 10 -4 7 -3 10 3 6 11 -7 11 22 0 40 -4 6 -3 14 3 18 6 4 7
12 4 18 -4 7 -4 9 1 5 4 -4 13 -3 20 2 8 7 12 5 12 -5 0 -8 -4 -12 -9 -9 -4 3
-8 3 -8 1 0 -7 73 -49 90 -52 8 -1 15 -9 14 -17 -1 -8 5 -15 12 -15 7 0 10 5
7 11 -4 6 0 5 9 -1 8 -7 17 -10 21 -7 3 3 3 -5 0 -18 -3 -16 -2 -19 5 -9 7 9
11 10 17 2 4 -7 1 -20 -6 -29 -11 -14 -11 -15 1 -4 8 6 20 12 28 12 12 0 12
-3 2 -15 -10 -12 -10 -15 3 -15 11 0 14 -5 10 -17 -4 -10 -2 -14 4 -10 5 3 10
0 10 -7 0 -10 -6 -10 -28 3 -15 8 -25 19 -22 24 3 5 -1 7 -8 6 -27 -5 -81 13
-103 35 l-21 21 -3 -204 c-2 -205 1 -231 34 -231 11 0 14 34 14 179 0 99 4
182 8 185 4 2 29 -9 55 -25 l47 -29 0 -189 c0 -153 3 -191 15 -201 31 -26 35
-1 35 253 l0 252 -184 113 c-101 61 -187 112 -190 112 -3 0 -6 -27 -6 -60z
m90 -30 c-8 -5 -7 -9 5 -14 17 -6 12 -26 -6 -26 -6 0 -7 5 -3 12 5 7 3 8 -6 3
-10 -6 -7 -12 10 -25 20 -15 20 -18 6 -23 -10 -4 -14 -3 -11 3 5 9 -29 33 -36
25 -2 -2 -4 9 -4 24 -1 23 3 27 19 23 13 -3 17 -1 12 6 -5 8 -1 10 9 5 12 -4
13 -8 5 -13z"/>
<path d="M847 1503 c-9 -8 -9 -316 -1 -337 3 -9 14 -16 25 -16 17 0 18 12 21
158 2 86 0 167 -4 180 -7 21 -28 29 -41 15z"/>
<path d="M1106 1332 c-4 -7 -9 -237 -7 -297 1 -11 10 -26 20 -32 19 -12 19 -7
21 156 1 142 -2 169 -14 174 -9 4 -17 3 -20 -1z"/>
<path d="M1557 1334 c-10 -10 -8 -316 2 -332 6 -10 10 -10 20 1 8 10 11 62 9
173 -3 147 -9 180 -31 158z"/>
<path d="M0 1016 c0 -11 16 -14 73 -14 254 1 747 -8 753 -14 11 -12 54 -10 54
2 0 6 -5 10 -12 10 -6 0 -9 2 -6 5 9 10 37 -6 32 -18 -3 -9 14 -10 68 -5 40 4
88 8 105 8 46 -1 33 26 -15 33 -20 2 -265 5 -544 6 -436 2 -508 0 -508 -13z"/>
<path d="M1610 1022 c-6 -2 -8 -8 -4 -13 3 -5 0 -9 -6 -9 -6 0 -9 -4 -6 -8 3
-5 54 -12 113 -15 59 -3 117 -9 128 -13 14 -5 17 -4 10 4 -5 5 -19 12 -30 15
-11 3 2 3 30 0 47 -6 49 -5 35 12 -13 16 -11 17 20 15 61 -5 100 0 100 11 0 8
-56 10 -190 8 -104 -2 -194 -6 -200 -7z"/>
<path d="M2180 1022 c-33 -3 -40 -6 -30 -13 11 -7 3 -9 -25 -4 -22 3 -58 7
-80 10 l-40 3 40 -7 40 -8 -42 -2 c-23 0 -44 -4 -46 -8 -7 -11 234 -9 257 1
10 5 84 7 165 4 80 -2 126 -1 101 3 l-45 7 50 -3 c28 -1 78 -5 113 -9 51 -5
62 -3 62 9 0 8 -6 15 -12 16 -39 3 -470 3 -508 1z"/>
<path d="M755 950 c-7 -12 19 -12 55 0 22 7 21 8 -12 9 -20 1 -40 -3 -43 -9z"/>
<path d="M373 923 c20 -2 54 -2 75 0 20 2 3 4 -38 4 -41 0 -58 -2 -37 -4z"/>
<path d="M705 920 c-16 -7 -13 -9 18 -9 20 -1 37 4 37 9 0 12 -27 12 -55 0z"/>
<path d="M1900 893 c-14 -3 -29 -9 -35 -15 -13 -14 55 -2 69 12 10 10 9 11
-34 3z"/>
<path d="M805 870 c3 -5 22 -10 41 -10 19 0 33 -3 31 -7 -3 -5 16 -6 41 -4
l47 4 -70 13 c-89 16 -98 16 -90 4z"/>
<path d="M970 847 c15 -15 172 -33 245 -27 44 3 94 2 110 -2 32 -9 115 -1 115
11 0 4 -73 8 -162 9 -90 1 -197 5 -238 8 -41 4 -73 4 -70 1z"/>
<path d="M1650 840 c30 -5 73 -11 95 -14 l40 -5 -35 14 c-19 7 -62 13 -95 13
l-60 0 55 -8z"/>
<path d="M1945 841 c-72 -7 -49 -16 65 -26 54 -5 71 -4 60 4 -8 6 -28 11 -45
12 -23 2 -20 4 15 9 l45 7 -40 0 c-22 0 -67 -3 -100 -6z"/>
<path d="M245 750 c-4 -6 8 -10 30 -10 22 0 34 4 30 10 -3 6 -17 10 -30 10
-13 0 -27 -4 -30 -10z"/>
<path d="M447 713 c-4 -3 -7 -44 -7 -90 0 -66 3 -83 14 -83 21 0 24 9 28 73 3
54 21 66 21 13 0 -34 20 -51 37 -32 6 9 9 19 7 23 -3 5 2 9 12 10 16 1 18 -5
13 -43 -4 -40 -3 -44 17 -44 20 0 21 5 21 84 0 114 -14 121 -70 37 l-16 -23
-27 41 c-27 40 -37 47 -50 34z"/>
<path d="M673 712 c-22 -3 -23 -8 -23 -88 l0 -84 60 0 c47 0 60 3 60 15 0 11
-11 15 -40 15 -33 0 -40 3 -40 20 0 16 7 20 35 20 25 0 35 4 35 16 0 13 -8 15
-38 12 -35 -3 -38 -1 -34 19 4 19 11 23 43 23 28 0 39 4 39 15 0 8 -3 15 -7
16 -32 3 -72 3 -90 1z"/>
<path d="M816 711 c-8 -12 -10 -161 -3 -168 4 -3 13 -3 21 0 11 5 14 17 10 46
-5 47 10 55 28 16 6 -14 17 -25 25 -25 18 0 16 10 -4 25 -13 9 -13 14 -3 20 8
5 11 4 7 -2 -7 -12 17 -25 27 -16 11 11 6 24 -6 17 -7 -4 -10 -3 -6 1 5 5 20
10 35 11 15 2 23 0 17 -4 -15 -10 -25 -42 -13 -42 6 0 6 -7 -1 -20 -9 -16 -8
-22 5 -26 25 -10 29 1 30 81 2 56 -2 78 -13 87 -12 10 -18 8 -31 -10 -50 -71
-44 -69 -74 -23 -27 40 -41 49 -51 32z"/>
<path d="M1064 706 c-55 -24 -65 -102 -18 -143 38 -34 86 -31 118 8 14 17 26
39 26 50 0 32 -26 74 -55 87 -32 15 -32 15 -71 -2z m67 -45 c20 -16 22 -23 14
-46 -12 -34 -46 -49 -70 -31 -23 17 -22 66 1 83 23 17 27 17 55 -6z"/>
<path d="M1253 712 l-33 -3 0 -85 c0 -77 2 -84 20 -84 16 0 20 7 20 31 0 28 2
31 24 25 15 -4 26 -1 29 7 4 9 6 9 6 0 1 -6 -4 -15 -10 -18 -13 -8 18 -45 38
-45 17 0 17 20 -2 47 -13 18 -13 22 0 33 16 13 20 47 7 68 -11 16 -59 28 -99
24z m52 -32 c-3 -5 -1 -10 4 -10 17 0 13 -27 -5 -34 -31 -12 -44 -6 -44 18 0
18 7 26 23 29 12 2 23 5 25 6 2 0 0 -3 -3 -9z"/>
<path d="M1390 707 c0 -8 14 -33 30 -55 20 -28 30 -54 30 -77 0 -28 4 -35 20
-35 16 0 20 7 20 33 0 22 11 47 30 73 16 21 30 47 30 57 0 31 -28 18 -53 -24
l-25 -41 -24 41 c-22 39 -58 56 -58 28z"/>
<path d="M1800 712 c-6 -2 -10 -40 -10 -88 l0 -84 60 0 c47 0 60 3 60 15 0 11
-11 15 -40 15 -33 0 -40 3 -40 20 0 16 7 20 35 20 24 0 35 5 35 15 0 10 -11
15 -35 15 -28 0 -35 4 -35 20 0 17 7 20 40 20 29 0 40 4 40 15 0 8 -6 16 -12
16 -28 4 -88 4 -98 1z"/>
<path d="M1995 706 c-31 -13 -55 -51 -55 -86 0 -10 12 -32 26 -49 20 -24 34
-31 62 -31 45 0 67 13 59 33 -4 11 -16 14 -45 10 -34 -5 -42 -2 -52 16 -23 44
19 93 60 71 11 -6 25 -8 30 -5 19 11 10 35 -16 45 -31 12 -32 12 -69 -4z"/>
<path d="M2137 714 c-4 -4 -7 -45 -7 -91 0 -76 2 -83 20 -83 15 0 20 7 20 24
0 38 18 40 46 7 14 -17 34 -31 45 -31 26 0 24 9 -11 50 -17 19 -30 39 -30 44
0 6 14 25 32 43 27 28 29 33 14 39 -20 8 -76 -40 -76 -65 0 -26 -18 2 -22 33
-3 29 -18 43 -31 30z"/>
<path d="M1600 625 l0 -85 43 0 c64 0 83 9 102 44 21 38 16 71 -15 104 -17 18
-32 22 -75 22 l-55 0 0 -85z m100 35 c26 -26 25 -55 -2 -74 -44 -31 -58 -22
-58 39 0 48 2 55 20 55 11 0 29 -9 40 -20z"/>
<path d="M2095 490 c-4 -6 4 -10 18 -10 14 0 39 -3 56 -6 19 -4 31 -2 31 4 0
6 -12 10 -28 10 -15 -1 -37 2 -49 6 -12 4 -24 2 -28 -4z"/>
<path d="M2240 460 c0 -13 50 -13 70 0 11 7 4 10 -27 10 -24 0 -43 -4 -43 -10z"/>
</g>
</svg>
